<svg width="21" height="21" fill="none" xmlns="http://www.w3.org/2000/svg"><path d="M18.724 5.364c.05-.069-.023-.158-.103-.128a7.281 7.281 0 0 1-1.757.44 3.54 3.54 0 0 0 1.475-1.732c.029-.073-.051-.139-.12-.1a7.041 7.041 0 0 1-1.994.734.086.086 0 0 1-.08-.026 3.516 3.516 0 0 0-5.994 3.13.087.087 0 0 1-.09.105A9.983 9.983 0 0 1 3.01 4.212a.084.084 0 0 0-.14.013 3.565 3.565 0 0 0-.411 1.665 3.505 3.505 0 0 0 1.56 2.923 3.474 3.474 0 0 1-1.465-.368c-.059-.03-.129.012-.126.078.035.762.315 1.527.8 2.114a3.516 3.516 0 0 0 2.026 1.21 3.37 3.37 0 0 1-.943.146 4.188 4.188 0 0 1-.52-.038c-.064-.009-.116.052-.094.112a3.524 3.524 0 0 0 3.237 2.3 7.05 7.05 0 0 1-4.823 1.494c-.09-.006-.133.115-.054.161a9.923 9.923 0 0 0 5.075 1.389 9.94 9.94 0 0 0 9.297-6.163 9.934 9.934 0 0 0 .744-3.85v-.41c0-.028.012-.053.034-.07a7.225 7.225 0 0 0 1.517-1.554Z" fill="#fff"/></svg>