<svg width="21" height="21" fill="none" xmlns="http://www.w3.org/2000/svg"><path fill-rule="evenodd" clip-rule="evenodd" d="M6.11 4.219a55.105 55.105 0 0 1 8.594 0l1.922.15a2.336 2.336 0 0 1 2.122 1.944 24.262 24.262 0 0 1 0 8 2.337 2.337 0 0 1-2.122 1.944l-1.922.15c-2.86.224-5.733.224-8.593 0l-1.922-.15a2.337 2.337 0 0 1-2.122-1.944 24.265 24.265 0 0 1 0-8 2.337 2.337 0 0 1 2.122-1.944l1.922-.15Zm2.583 8.211V8.195c0-.2.218-.323.39-.22l3.53 2.117c.166.1.166.341 0 .441l-3.53 2.118a.257.257 0 0 1-.39-.22Z" fill="#fff"/></svg>